<svg width="498" height="501" viewBox="0 0 498 501" fill="none" xmlns="http://www.w3.org/2000/svg">
<g clip-path="url(#clip0_2005_6048)">
<path d="M71.69 417.144C-13.0288 329.65 -12.1857 193.125 73.484 125.25C87.4045 114.22 87.4045 114.22 88.9534 107.847C100.374 60.9238 124.421 30.4128 163.516 13.2553C181.368 5.42168 180.378 4.94126 180.378 21.5498C180.378 48.6096 186.946 73.9342 194.945 77.7578C204.16 82.16 207.258 81.1011 218.678 69.6791C240.824 47.5312 272.9 30.4325 292.379 30.403C299.986 30.3932 299.976 30.2658 293.31 41.0211C283.213 57.3453 275.547 83.9346 273.949 108.171C273.253 118.789 273.253 118.789 280.193 130.789C291.859 150.957 294.202 164.202 290.977 191.645C288.84 209.92 295.839 223.067 317.082 240.627C331.738 252.745 331.934 255.382 319.023 267.618C295.643 289.776 268.684 293.374 226.374 279.972C206.493 273.687 201.494 273.177 195.808 276.883C183.75 284.746 196.592 310.679 217.179 320.052C268.518 343.435 335.395 318.179 361.785 265.442C365.628 257.765 369.235 251.314 369.804 251.118C371.333 250.588 373.274 258.069 374.039 267.452C374.411 272.011 375.186 276.021 375.754 276.354C378.097 277.746 390.841 255.559 396.968 239.441C418.555 182.644 410.575 129.456 372.686 77.5618C366.932 69.6791 362.736 63.1102 363.353 62.9533C365.834 62.3357 385.832 73.9244 398.184 83.1502C474.217 139.888 497.392 240.843 453.199 322.807C442.778 342.141 443.435 343.817 456.336 330.846C463.208 323.944 467.002 318.954 473.492 308.296C483.265 292.247 483.844 292.639 479.364 312.179C469.198 356.553 439.808 404.898 405.644 433.478C365.598 466.979 326.366 484.146 274.958 490.686C263.498 492.137 250.548 493.156 243.431 493.156C236.481 493.156 225.433 492.303 217.384 491.156C158.781 482.744 112.383 459.185 71.69 417.144ZM128.489 416.889C116.255 398.829 110.53 384.338 108.511 366.338C106.55 348.837 107.472 348.249 117.471 360.553C123.274 367.701 128.803 373.103 136.587 379.23C153.213 392.329 166.702 397.28 159.673 387.721C158.389 385.966 153.713 379.623 149.292 373.603C131.009 348.788 124.274 320.434 130.872 296.031C140.498 260.373 172.378 248.176 216.453 263.295C256.832 277.148 271.87 279.315 286.193 273.364C294.006 270.118 293.535 268.952 284.193 268.412C271.066 267.638 259.999 263.275 232.824 248.166C195.229 227.264 180.074 221.391 154.34 217.734C131.626 214.518 130.685 213.508 148.743 211.753C176.829 209.018 205.199 217.077 243.608 238.696C279.085 258.657 297.035 262.638 297.035 250.549C297.035 248.186 297.584 244.647 298.26 242.666C299.476 239.117 299.437 239.039 294.761 234.009C278.154 216.185 276.096 210.263 277.027 182.85C277.88 157.761 276.125 151.271 264.008 134.446C251.617 117.24 221.482 95.8076 204.297 91.9839C196.327 90.1995 196.19 90.4348 198.925 101.396C201.748 112.72 201.19 113.485 193.18 109.318C176.858 100.818 164.791 73.042 164.722 43.8153C164.683 27.0794 161.82 27.6284 143.184 47.9822C122.706 70.336 114.285 93.0231 114.236 125.985C114.196 146.996 115.226 144.986 101.501 150.878C82.3167 159.104 60.9458 177.399 53.4758 191.978C49.5251 199.694 50.3682 200.027 60.8968 194.841C81.1893 184.86 91.7571 185.988 79.5718 196.831C64.3671 210.361 54.9561 228.891 54.9169 245.343C54.8874 255.098 55.358 255.226 65.8964 248.343C82.3167 237.617 103.041 233.225 123.784 236.058C137.587 237.941 137.685 238.646 124.882 243.99C61.8085 270.324 54.0934 355.837 109.746 411.849C116.157 418.301 123.343 424.369 128.666 427.801C133.381 430.86 137.538 432.978 137.891 432.527C138.244 432.076 134.009 425.036 128.489 416.889Z" fill="#2EBD59"/>
<path d="M142.391 78.4345L146.45 71.0813C149.832 94.8175 153.88 108.269 157.106 112.367C159.203 115.024 159.203 115.024 154.841 118.515C152.439 120.436 146.969 125.446 142.685 129.633C138.391 133.829 134.529 137.26 134.107 137.26C133.676 137.26 132.833 136.045 132.235 134.564C127.098 121.779 131.304 98.5137 142.391 78.4345Z" fill="#2EBD59" fill-opacity="0.988235"/>
<path d="M207.591 184.517C195.23 179.282 197.602 176.781 214.052 177.703C231.864 178.703 243.716 186.899 250.117 202.645C251.794 206.763 252.892 210.724 252.549 211.449C252.127 212.361 249.755 210.744 244.736 206.136C237.138 199.155 223.747 191.36 207.591 184.517Z" fill="#2EBD59" fill-opacity="0.988235"/>
</g>
<defs>
<clipPath id="clip0_2005_6048">
<rect width="498" height="501" fill="white"/>
</clipPath>
</defs>
</svg>
